<svg width="600" height="500" viewBox="0 0 600 500" fill="none" xmlns="http://www.w3.org/2000/svg">
  <rect width="600" height="500" fill="#E8ECD6"/>

  <!-- Organic mesh shapes - top left -->
  <g stroke="#7CB572" stroke-width="0.8" fill="none" opacity="0.9">
    <!-- Shape 1 - top left partial -->
    <path d="M-20,80 Q30,20 100,40 Q170,60 180,130 Q190,200 130,220 Q70,240 20,190 Q-30,140 -20,80" />
    <path d="M-15,85 Q35,30 100,48 Q165,66 175,130 Q185,194 128,212 Q71,230 24,184 Q-23,138 -15,85" />
    <path d="M-10,90 Q40,40 100,56 Q160,72 170,130 Q180,188 126,204 Q72,220 28,178 Q-16,136 -10,90" />
    <path d="M-5,95 Q45,50 100,64 Q155,78 165,130 Q175,182 124,196 Q73,210 32,172 Q-9,134 -5,95" />
    <path d="M0,100 Q50,60 100,72 Q150,84 160,130 Q170,176 122,188 Q74,200 36,166 Q-2,132 0,100" />

    <!-- Cross hatching -->
    <line x1="-30" y1="60" x2="190" y2="240" />
    <line x1="-20" y1="40" x2="200" y2="220" />
    <line x1="0" y1="20" x2="200" y2="180" />
    <line x1="30" y1="10" x2="190" y2="140" />
    <line x1="60" y1="0" x2="180" y2="100" />
    <line x1="200" y1="60" x2="-20" y2="200" />
    <line x1="190" y1="40" x2="0" y2="180" />
    <line x1="180" y1="20" x2="20" y2="160" />
    <line x1="160" y1="10" x2="40" y2="140" />
  </g>

  <!-- Shape 2 - top right -->
  <g stroke="#7CB572" stroke-width="0.8" fill="none" opacity="0.9" transform="translate(320, -20)">
    <path d="M50,100 Q100,50 170,70 Q240,90 250,160 Q260,230 200,250 Q140,270 90,220 Q40,170 50,100" />
    <path d="M55,105 Q105,58 170,76 Q235,94 245,160 Q255,226 198,244 Q141,262 94,216 Q47,170 55,105" />
    <path d="M60,110 Q110,66 170,82 Q230,98 240,160 Q250,222 196,238 Q142,254 98,212 Q54,170 60,110" />
    <path d="M65,115 Q115,74 170,88 Q225,102 235,160 Q245,218 194,232 Q143,246 102,208 Q61,170 65,115" />
    <path d="M70,120 Q120,82 170,94 Q220,106 230,160 Q240,214 192,226 Q144,238 106,204 Q68,170 70,120" />

    <line x1="40" y1="80" x2="260" y2="260" />
    <line x1="50" y1="60" x2="270" y2="240" />
    <line x1="70" y1="40" x2="270" y2="200" />
    <line x1="100" y1="30" x2="260" y2="160" />
    <line x1="270" y1="80" x2="50" y2="220" />
    <line x1="260" y1="60" x2="70" y2="200" />
    <line x1="250" y1="40" x2="90" y2="180" />
  </g>

  <!-- Shape 3 - middle left -->
  <g stroke="#7CB572" stroke-width="0.8" fill="none" opacity="0.9" transform="translate(-60, 180)">
    <path d="M80,100 Q130,40 200,60 Q270,80 290,150 Q310,220 250,250 Q190,280 120,230 Q50,180 80,100" />
    <path d="M85,105 Q135,50 200,68 Q265,86 283,150 Q301,214 246,242 Q191,270 126,224 Q61,178 85,105" />
    <path d="M90,110 Q140,60 200,76 Q260,92 276,150 Q292,208 242,234 Q192,260 132,218 Q72,176 90,110" />
    <path d="M95,115 Q145,70 200,84 Q255,98 269,150 Q283,202 238,226 Q193,250 138,212 Q83,174 95,115" />
    <path d="M100,120 Q150,80 200,92 Q250,104 262,150 Q274,196 234,218 Q194,240 144,206 Q94,172 100,120" />

    <line x1="60" y1="80" x2="300" y2="270" />
    <line x1="80" y1="50" x2="310" y2="240" />
    <line x1="110" y1="30" x2="300" y2="190" />
    <line x1="310" y1="100" x2="70" y2="250" />
    <line x1="300" y1="70" x2="100" y2="220" />
    <line x1="280" y1="50" x2="130" y2="190" />
  </g>

  <!-- Shape 4 - middle right -->
  <g stroke="#7CB572" stroke-width="0.8" fill="none" opacity="0.9" transform="translate(300, 160)">
    <path d="M60,90 Q120,30 190,50 Q260,70 280,140 Q300,210 240,240 Q180,270 110,220 Q40,170 60,90" />
    <path d="M66,96 Q124,40 190,58 Q256,76 274,140 Q292,204 236,232 Q180,260 116,214 Q52,168 66,96" />
    <path d="M72,102 Q128,50 190,66 Q252,82 268,140 Q284,198 232,224 Q180,250 122,208 Q64,166 72,102" />
    <path d="M78,108 Q132,60 190,74 Q248,88 262,140 Q276,192 228,216 Q180,240 128,202 Q76,164 78,108" />
    <path d="M84,114 Q136,70 190,82 Q244,94 256,140 Q268,186 224,208 Q180,230 134,196 Q88,162 84,114" />

    <line x1="50" y1="70" x2="290" y2="260" />
    <line x1="70" y1="40" x2="300" y2="230" />
    <line x1="100" y1="20" x2="290" y2="180" />
    <line x1="300" y1="90" x2="60" y2="240" />
    <line x1="290" y1="60" x2="90" y2="210" />
  </g>

  <!-- Shape 5 - bottom left partial -->
  <g stroke="#7CB572" stroke-width="0.8" fill="none" opacity="0.9" transform="translate(-40, 380)">
    <path d="M70,60 Q130,10 200,30 Q270,50 290,110 Q310,170 250,200 Q190,230 120,190 Q50,150 70,60" />
    <path d="M76,66 Q134,20 200,38 Q266,56 284,110 Q302,164 246,192 Q190,220 126,184 Q62,148 76,66" />
    <path d="M82,72 Q138,30 200,46 Q262,62 278,110 Q294,158 242,184 Q190,210 132,178 Q74,146 82,72" />
    <path d="M88,78 Q142,40 200,54 Q258,68 272,110 Q286,152 238,176 Q190,200 138,172 Q86,144 88,78" />

    <line x1="60" y1="40" x2="300" y2="210" />
    <line x1="80" y1="20" x2="310" y2="180" />
    <line x1="300" y1="60" x2="70" y2="200" />
    <line x1="290" y1="40" x2="100" y2="180" />
  </g>

  <!-- Shape 6 - bottom right partial -->
  <g stroke="#7CB572" stroke-width="0.8" fill="none" opacity="0.9" transform="translate(320, 360)">
    <path d="M50,70 Q110,20 180,40 Q250,60 270,120 Q290,180 230,210 Q170,240 100,200 Q30,160 50,70" />
    <path d="M56,76 Q114,28 180,46 Q246,64 264,120 Q282,176 226,204 Q170,232 106,196 Q42,160 56,76" />
    <path d="M62,82 Q118,36 180,52 Q242,68 258,120 Q274,172 222,198 Q170,224 112,192 Q54,160 62,82" />
    <path d="M68,88 Q122,44 180,58 Q238,72 252,120 Q266,168 218,192 Q170,216 118,188 Q66,160 68,88" />

    <line x1="40" y1="50" x2="280" y2="220" />
    <line x1="60" y1="30" x2="290" y2="190" />
    <line x1="280" y1="70" x2="50" y2="210" />
    <line x1="270" y1="50" x2="80" y2="190" />
  </g>
</svg>