<svg width="1129" height="1098" viewBox="0 0 1129 1098" fill="none" xmlns="http://www.w3.org/2000/svg">
<path fill-rule="evenodd" clip-rule="evenodd" d="M842.78 0.561273C831.959 2.69227 828.921 3.61226 823.28 6.47126C813.467 11.4443 806 18.6763 801.838 27.2413C793.293 44.8273 793.399 61.7943 802.284 98.4353C804.851 109.024 810.113 136.21 811.768 147.435C812.794 154.396 813.154 188.144 812.28 195.435C811.818 199.285 811.172 204.91 810.844 207.935C809.65 218.935 804.813 237.124 800.194 247.979C791.648 268.06 779.232 281.64 767.738 283.478C751.842 286.019 735.822 267.623 724.279 233.573C715.65 208.117 712.781 193.267 709.765 158.435C706.646 122.414 703.037 101.847 697.421 88.0923C690.743 71.7363 681.988 62.8223 666.78 56.8953C661.663 54.9003 659.015 54.5593 648.78 54.5783C638.61 54.5963 635.411 55.0163 627.802 57.3293C616.31 60.8233 610.341 64.1083 604.067 70.3933C591.87 82.6103 587.07 95.7443 587.802 114.904C588.744 139.601 599.218 167.569 623.205 209.435C633.069 226.652 652.327 265.059 656.772 276.378C682.044 340.736 687.091 395.731 670.695 428.106C663.576 442.163 655.778 446.677 645.808 442.511C640.887 440.455 633.8 433.553 629.73 426.853C625.561 419.989 618.681 403.853 614.843 391.935C611.771 382.397 603.199 360.821 599.722 353.876C595.626 345.693 590.007 339.602 583.18 335.944C577.443 332.869 575.796 332.474 567.28 332.125C550.976 331.457 537.448 336.641 526.2 347.866C515.021 359.024 510.78 369.218 510.78 384.935C510.78 402.205 515.999 414.497 534.98 441.935C535.931 443.31 542.575 451.566 549.745 460.282C577.202 493.661 585.613 505.588 594.635 523.935C606.209 547.474 609.865 565.676 608.996 595.435C608.375 616.701 607.198 623.851 598.624 658.435C588.24 700.318 578.22 734.868 563.095 780.935C541.277 847.389 534.187 863.229 523.839 868.645C521.17 870.042 520.614 870.031 517.823 868.528C511.056 864.884 504.979 852.029 496.269 822.935C483.272 779.522 461.835 678.215 444.32 577.435C428.123 484.235 425.33 467.723 422.244 446.935C414.579 395.292 409.022 356.528 404.327 321.935C394.168 247.092 392.887 240.674 385.142 225.788C378.747 213.495 364.652 199.745 351.675 193.141C340.816 187.615 310.597 179.611 290.472 176.93C279.512 175.47 262.971 175.422 256.992 176.831C245.316 179.585 235.552 186.884 231.479 195.903C227.333 205.086 227.389 213.881 231.739 236.435C233.754 246.885 235.848 258.135 236.391 261.435C241.08 289.917 264.856 395.554 288.832 494.435C305.087 561.472 307.583 573.037 308.835 587.118C309.572 595.419 308.073 605.476 305.292 610.881C298.416 624.244 283.384 625.216 267.651 613.315C260.942 608.239 243.642 591.503 234.685 581.421C218.288 562.965 195.993 530.876 183.281 507.435C168.194 479.616 161.632 463.644 144.25 412.435C130.68 372.455 123.31 352.9 117.191 340.635C102.943 312.078 86.6056 299.981 62.2396 299.947C47.1296 299.926 34.8636 304.503 22.7356 314.689C2.11459 332.008 -4.28141 353.608 2.74359 382.201C5.81659 394.704 10.5156 406.328 19.7356 424.233C31.1196 446.34 52.4156 483.043 61.7896 496.711C68.9506 507.152 78.0186 519.946 80.7326 523.435C91.9006 537.797 110.121 559.7 116.918 566.935C118.21 568.31 120.924 571.235 122.949 573.435C138.387 590.208 158.603 609.854 190.283 638.874C231.015 676.186 234.422 679.284 244.28 687.979C258.035 700.111 295.744 738.003 303.948 747.935C313.259 759.209 319.553 768.608 323.974 777.847C335.022 800.93 323.896 807.916 292.708 797.48C267.723 789.119 235.331 769.782 189.846 736.075C149.162 705.924 124.577 690.907 106.78 685.336C98.3656 682.702 81.9836 682.739 73.7796 685.411C57.0506 690.86 40.1886 710.507 34.7086 730.935C32.3066 739.891 32.2916 753.838 34.6776 760.935C39.8346 776.278 48.2976 787.34 63.5936 798.732C75.0116 807.236 76.3356 808.021 94.7796 817.224C129.495 834.544 163.575 845.747 230.78 861.93C269.545 871.264 302.116 882.384 322.28 893.169C349.833 907.905 370.958 925.22 385.434 944.935C400.575 965.554 406.976 978.937 414.134 1004.94C419.153 1023.17 420.853 1032.18 422.765 1050.7C424.577 1068.25 424.97 1070.34 427.358 1075.06C431.187 1082.63 440.568 1087.85 458.28 1092.3C479.805 1097.69 506.247 1099.21 530.78 1096.46C547.579 1094.57 557.473 1091.98 567.223 1086.9C583.78 1078.29 588.318 1070.26 597.7 1032.94C608.389 990.418 611.871 980.058 623.853 955.124C637.945 925.801 659.139 898.125 678.487 883.781C689.064 875.94 705.751 866.298 714.78 862.809C734.668 855.124 761.132 851.887 788.476 853.796C804.998 854.949 835.707 859.121 855.78 862.94C903.179 871.958 924.947 874.443 949.611 873.654C963.886 873.197 968.297 872.674 975.78 870.552C994.504 865.241 1010.31 854.648 1016.51 843.251C1022.19 832.821 1025.53 812.975 1023.47 801.935C1021.31 790.4 1018.52 784.886 1011.23 777.781C1001.2 768.003 996.815 766.496 978.28 766.464C962.123 766.437 955.25 767.663 927.65 775.497C888.117 786.717 865.549 788.485 847.572 781.768C832.241 776.041 834.108 762.94 852.802 745.069C857.999 740.1 865.745 733.445 870.015 730.279C879.178 723.485 906.726 705.579 931.28 690.456C953.54 676.745 994.637 649.468 1008.28 639.347C1014.05 635.063 1023.28 628.204 1028.78 624.104C1076.36 588.64 1111.25 551.709 1122.36 525.073C1128.21 511.034 1129.95 493.775 1126.75 481.477C1122.97 466.962 1111.46 452.604 1098.45 446.175C1091.23 442.605 1090.43 442.435 1080.83 442.435C1071.85 442.435 1070.17 442.733 1065.08 445.232C1054.64 450.361 1044.04 463.464 1027.31 491.935C1013.73 515.059 1003.66 527.305 991.875 535.054C977.948 544.208 969.242 537.441 970.578 518.501C971.289 508.429 972.948 502.393 979.53 485.935C986.292 469.029 988.966 460.424 990.187 451.651C992.101 437.888 989.23 427.323 981.18 418.516C971.958 408.425 961.98 404.501 945.729 404.574C921.143 404.685 902.693 416.33 891.29 438.935C882.489 456.379 878.824 481.744 877.778 532.435C876.739 582.79 873.633 600.248 861.682 622.914C847.338 650.119 822.989 673.851 769.78 712.491C747.235 728.863 712.93 748.171 697.918 752.938C692.526 754.65 684.279 753.783 680.524 751.109C675.386 747.45 673.277 741.685 673.302 731.369C673.33 719.581 675.041 712.381 688.134 668.935C710.927 593.305 733.271 531.458 752.269 491.415C779.138 434.781 795.341 409.685 830.391 370.416C853.886 344.093 879.901 320.293 940.78 269.426C1011.35 210.46 1035.56 185.052 1051.32 153.435C1060.52 134.961 1062.55 127.228 1062.62 110.435C1062.66 98.8713 1062.36 96.5243 1059.93 89.1863C1054.92 74.0733 1044.9 62.8363 1029.78 55.3623C1013.02 47.0783 997.623 49.0163 982.78 61.2773C973.022 69.3363 968.685 76.4713 959.786 99.0983C945.08 136.49 937.393 150.621 924.78 163.449C915.591 172.795 910.986 175.391 903.549 175.417C899.035 175.432 897.899 175.016 895.259 172.376C886.584 163.701 887.194 142.853 897.726 87.9723C902.352 63.8683 903.053 53.8553 900.867 43.0703C897.116 24.5573 888.637 12.7703 873.527 5.06127C865.634 1.03427 851.145 -1.08573 842.78 0.561273Z" fill="#193237"/>
</svg>
